<?xml version="1.0" standalone="no"?>
<!DOCTYPE svg PUBLIC "-//W3C//DTD SVG 20010904//EN"
 "http://www.w3.org/TR/2001/REC-SVG-20010904/DTD/svg10.dtd">
<svg version="1.0" xmlns="http://www.w3.org/2000/svg"
 width="291.000000pt" height="276.000000pt" viewBox="0 0 291.000000 276.000000"
 preserveAspectRatio="xMidYMid meet">

<g transform="translate(0.000000,276.000000) scale(0.100000,-0.100000)"
fill="#ffff" stroke="none">
<path class="w-logo-base-color" d="M1474 2746 c-3 -8 -4 -27 -2 -43 3 -25 7 -28 38 -28 34 0 35 1 35 40
0 38 -2 40 -33 43 -21 2 -34 -2 -38 -12z"/>
<path class="w-logo-base-color" d="M1065 2665 c-26 -25 -27 -27 -23 -156 4 -165 -3 -159 170 -159 172 0
168 -4 168 168 0 173 6 166 -159 170 -129 4 -131 3 -156 -23z"/>
<path class="w-logo-base-color" d="M294 2653 c-12 -2 -32 -15 -45 -29 -23 -25 -24 -31 -27 -226 -2 -140
0 -210 9 -230 21 -50 51 -58 224 -58 l155 0 0 -225 c0 -252 6 -280 62 -315 31
-19 50 -20 303 -20 386 0 365 -21 365 360 0 385 19 364 -327 368 l-243 4 0
149 c0 176 -8 202 -68 218 -35 10 -362 13 -408 4z"/>
<path class="w-logo-base-color" d="M1620 2633 c-26 -10 -30 -25 -30 -115 0 -115 3 -118 125 -118 83 0
96 2 105 19 13 25 13 181 0 201 -7 11 -32 16 -97 17 -48 1 -95 0 -103 -4z"/>
<path class="w-logo-base-color" d="M1875 2371 c-43 -11 -70 -30 -91 -65 -18 -29 -19 -56 -19 -357 l0
-326 28 -36 c17 -23 41 -40 65 -47 22 -6 161 -10 337 -10 330 0 345 2 389 63
20 27 21 40 21 360 0 456 33 421 -400 424 -165 1 -313 -2 -330 -6z"/>
<path class="w-logo-principal-color" fill='#2196f3' d="M1410 1910 l0 -430 -430 0 -430 0 0 -145 0 -145 430 0 430 0 0 -430
0 -430 145 0 145 0 0 430 0 430 430 0 430 0 0 145 0 145 -430 0 -430 0 0 430
0 430 -145 0 -145 0 0 -430z"/>
<path class="w-logo-base-color" d="M2696 2074 c-12 -11 -16 -35 -16 -85 0 -104 4 -109 103 -109 51 0 88
5 95 12 7 7 12 44 12 95 0 99 -5 103 -109 103 -50 0 -74 -4 -85 -16z"/>
<path class="w-logo-base-color" d="M54 2035 c-25 -25 -25 -27 -22 -161 3 -121 5 -137 22 -150 15 -10 54
-14 153 -14 178 0 173 -5 173 173 0 72 -4 137 -8 143 -17 26 -56 34 -172 34
-116 0 -122 -1 -146 -25z"/>
<path class="w-logo-base-color" d="M1813 1105 c-48 -21 -55 -59 -51 -272 4 -246 -17 -228 258 -228 276
0 254 -20 258 237 4 216 -2 242 -54 264 -47 20 -366 19 -411 -1z"/>
<path class="w-logo-base-color" d="M2368 989 c-14 -8 -18 -24 -18 -77 0 -40 5 -73 12 -80 7 -7 40 -12
78 -12 38 0 71 5 78 12 7 7 12 40 12 80 0 56 -3 69 -19 78 -25 13 -121 13
-143 -1z"/>
<path class="w-logo-base-color" d="M2369 457 c-48 -32 -71 -81 -66 -140 7 -83 65 -139 143 -140 90 -1
154 55 161 142 8 92 -57 161 -152 161 -37 0 -62 -6 -86 -23z m158 -22 c28 -19
53 -71 53 -112 0 -38 -33 -89 -69 -108 -115 -59 -229 81 -156 192 34 51 116
64 172 28z"/>
<path class="w-logo-base-color" d="M2403 409 c-8 -8 -13 -41 -13 -86 0 -66 2 -73 20 -73 16 0 20 7 20
31 0 24 4 30 17 27 10 -2 24 -16 31 -31 8 -15 21 -27 32 -27 17 0 18 3 9 27
-6 15 -14 33 -20 39 -6 7 -4 16 6 24 18 15 19 44 2 58 -22 18 -90 25 -104 11z
m72 -44 c0 -13 -8 -21 -22 -23 -19 -3 -23 1 -23 23 0 22 4 26 23 23 14 -2 22
-10 22 -23z"/>
<path class="w-logo-base-color" d="M1608 269 c-14 -8 -18 -24 -18 -77 0 -40 5 -73 12 -80 16 -16 140
-16 156 0 7 7 12 40 12 80 0 56 -3 69 -19 78 -25 13 -121 13 -143 -1z"/>
<path class="w-logo-base-color" d="M1388 189 c-15 -8 -18 -24 -18 -87 0 -47 5 -83 12 -90 16 -16 140
-16 156 0 7 7 12 43 12 90 0 66 -3 79 -19 88 -25 13 -121 13 -143 -1z"/>
</g>
</svg>
